HIERARCHY
ROOT ui
{
	 OFFSET 0 0 0
	 CHANNELS 3 XPosition YPosition Z Position
	 EndSite
	 {
	 OFFSET 0 -1 0
	 }
}
ROOT li
{
	 OFFSET 0 0 0
	 CHANNELS 3 XPosition YPosition Z Position
	 EndSite
	 {
	 OFFSET 0 -1 0
	 }
}
ROOT ul
{
	 OFFSET 0 0 0
	 CHANNELS 3 XPosition YPosition Z Position
	 EndSite
	 {
	 OFFSET 0 -1 0
	 }
}
ROOT ll
{
	 OFFSET 0 0 0
	 CHANNELS 3 XPosition YPosition Z Position
	 EndSite
	 {
	 OFFSET 0 -1 0
	 }
}
ROOT tt
{
	 OFFSET 0 0 0
	 CHANNELS 3 XPosition YPosition Z Position
	 EndSite
	 {
	 OFFSET 0 -1 0
	 }
}
ROOT tb
{
	 OFFSET 0 0 0
	 CHANNELS 3 XPosition YPosition Z Position
	 EndSite
	 {
	 OFFSET 0 -1 0
	 }
}
ROOT td
{
	 OFFSET 0 0 0
	 CHANNELS 3 XPosition YPosition Z Position
	 EndSite
	 {
	 OFFSET 0 -1 0
	 }
}
ROOT v
{
	 OFFSET 0 0 0
	 CHANNELS 3 XPosition YPosition Z Position
	 EndSite
	 {
	 OFFSET 0 -1 0
	 }
}
ROOT bn
{
	 OFFSET 0 0 0
	 CHANNELS 3 XPosition YPosition Z Position
	 EndSite
	 {
	 OFFSET 0 -1 0
	 }
}
MOTION
Frames: 29
Frame Time: 0.002
-0.015457897186279297	0.0033868350982666014	0		0.48844442749023437	-2.58815478515625	0		-0.9450079345703125	0.16153153991699218	0		-0.7297256469726563	-2.404310791015625	0		2.246427734375	-1.5586207275390624	0		3.527000732421875	-0.6733385009765624	0		4.67782177734375	-0.20199998474121095	0		5.93858056640625	0.3875654907226562	0		-0.11309757232666015	5.92675927734375	0		
0.01128637409210205	0.0033167529106140135	0		0.4772029418945313	-2.581623291015625	0		-0.9493030395507812	0.15899908447265626	0		-0.7429606323242187	-2.397705078125	0		2.281068603515625	-1.5618983154296875	0		3.52590478515625	-0.66207470703125	0		4.6995595703125	-0.20214907836914062	0		5.9373583984375	0.38874813842773437	0		0.0040492949485778805	5.9382236328125	0		
0.006953371047973633	-2.1522200107574463E-4	0		0.528707275390625	-2.58908935546875	0		-0.9495648193359375	0.1594406433105469	0		-0.7344920043945312	-2.407417724609375	0		2.278687255859375	-1.5645562744140624	0		3.513414794921875	-0.6736192016601562	0		4.679318359375	-0.19961283874511718	0		5.92910693359375	0.38903768920898435	0		-0.12834982299804687	5.91678662109375	0		
0.003626960039138794	-0.0027314488887786865	0		0.4743954162597656	-2.58279541015625	0		-0.9439176025390625	0.15482275390625	0		-0.7369169311523438	-2.4089150390625	0		2.2783349609375	-1.5642303466796874	0		3.537036376953125	-0.6777451171875	0		4.70074951171875	-0.2167598114013672	0		5.93271630859375	0.38112496948242186	0		-0.14252374267578125	5.90645849609375	0		
0.0033451650142669676	-0.0022662310600280763	0		0.5029703369140625	-2.58283251953125	0		-1.0091985473632812	0.15540834045410157	0		-0.7175945434570312	-2.424736572265625	0		2.286885498046875	-1.569035400390625	0		3.542585693359375	-0.6855682983398438	0		4.6935556640625	-0.2104340057373047	0		5.9382900390625	0.371172607421875	0		-0.16141798400878907	5.91124365234375	0		
0.010177938461303711	0.005112600803375244	0		0.4615567626953125	-2.5806904296875	0		-1.0054054565429686	0.1598974609375	0		-0.713955322265625	-2.420264892578125	0		2.28651025390625	-1.5686761474609374	0		3.544510498046875	-0.6703190307617187	0		4.70426025390625	-0.21039984130859374	0		5.9331796875	0.38039544677734377	0		-0.11108998107910156	5.9269208984375	0		
0.005833417892456055	0.0017036900520324707	0		0.5321194458007813	-2.58037158203125	0		-1.0056743774414063	0.16048666381835938	0		-0.7184549560546875	-2.42362744140625	0		2.286130859375	-1.5682974853515625	0		3.5310244140625	-0.6798040161132812	0		4.70881787109375	-0.21925740051269532	0		5.92807470703125	0.38962252807617187	0		-0.1251869812011719	5.9156865234375	0		
0.00555791711807251	0.0022564120292663573	0		0.47672927856445313	-2.575939453125	0		-1.0059392700195313	0.16110684204101564	0		-0.7209251708984376	-2.424992919921875	0		2.302731689453125	-1.5691795654296874	0		3.570881103515625	-0.6691533813476562	0		4.72052587890625	-0.2192178955078125	0		5.93169140625	0.38171493530273437	0		0.007296230792999268	5.937048828125	0		
-0.0018306330442428589	-0.004046440124511719	0		0.5291741333007812	-2.582276611328125	0		-1.010267333984375	0.15782208251953125	0		-0.727478515625	-2.43126318359375	0		2.278506103515625	-1.5593564453125	0		3.527602294921875	-0.6660980224609375	0		4.7184892578125	-0.20392726135253905	0		5.92757861328125	0.389957763671875	0		0.008409478187561036	5.936611328125	0		
0.0019641510248184202	4.902940094470978E-4	0		0.47890194702148436	-2.57087109375	0		-0.9946309814453125	0.15222747802734374	0		-0.7051532592773437	-2.444993408203125	0		2.305024169921875	-1.565359130859375	0		3.56799462890625	-0.6834187622070312	0		4.73991552734375	-0.22101025390625	0		5.93189697265625	0.36407904052734374	0		-0.1569385528564453	5.90998681640625	0		
0.004742023944854737	0.0040663938522338865	0		0.5115191345214843	-2.56683251953125	0		-0.985759521484375	0.1607689666748047	0		-0.774412109375	-2.433157958984375	0		2.293833251953125	-1.5537034912109375	0		3.589639404296875	-0.6854021606445313	0		4.73069677734375	-0.21655145263671874	0		5.936783203125	0.37222116088867185	0		-0.10658391571044921	5.92378076171875	0		
0.004466667175292969	0.004714284896850586	0		0.5090403747558594	-2.568183837890625	0		-0.9951585083007812	0.15363560485839844	0		-0.7080609130859375	-2.445589599609375	0		2.310435791015625	-1.554494140625	0		3.571743896484375	-0.6596904296875	0		4.74343896484375	-0.21443589782714845	0		5.9365322265625	0.37247711181640625	0		-0.10745108032226562	5.92545263671875	0		
0.0011340680122375489	0.0024319980144500734	0		0.523659912109375	-2.563804931640625	0		-0.9954310913085938	0.15436573791503908	0		-0.7875049438476562	-2.444537109375	0		2.307986572265625	-1.5579403076171876	0		3.551082763671875	-0.6789093017578125	0		4.7489892578125	-0.22317230224609375	0		5.93113818359375	0.3648511352539062	0		0.010831070899963378	5.9361220703125	0		
-0.0062773461341857914	-0.0037661058902740477	0		0.5330565185546875	-2.572323974609375	0		-0.9908009643554687	0.15002333068847656	0		-0.7191266479492188	-2.454981201171875	0		2.3276298828125	-1.5557392578125	0		3.58865771484375	-0.6840890502929687	0		4.74868212890625	-0.22277822875976563	0		5.9228681640625	0.3653098449707031	0		0.01188009262084961	5.9357861328125	0		
-0.0035351970195770265	-1.2435899674892426E-4	0		0.480745849609375	-2.562773681640625	0		-0.9851701049804688	0.14667091369628907	0		-0.7510147094726562	-2.479713623046875	0		2.31642236328125	-1.543992431640625	0		3.588310302734375	-0.683600341796875	0		4.75558251953125	-0.20947706604003907	0		5.92742578125	0.35658154296875	0		-0.1194984130859375	5.913720703125	0		
2.0571799576282502E-4	0.004507471084594727	0		0.5392904663085938	-2.562110107421875	0		-0.9763706665039062	0.15426898193359376	0		-0.6806216430664063	-2.488188720703125	0		2.3339931640625	-1.5447236328125	0		3.600167724609375	-0.6702987060546876	0		4.755244140625	-0.20903009033203124	0		5.93125439453125	0.36489620971679687	0		-0.08913713836669922	5.93591015625	0		
-1.4250099658966064E-4	0.005212142944335938	0		0.51083544921875	-2.559951171875	0		-0.97671142578125	0.15502241516113283	0		-0.6871965942382813	-2.493345947265625	0		2.367510986328125	-1.547719482421875	0		3.597820556640625	-0.6677396850585937	0		4.76688330078125	-0.2087691192626953	0		5.92678759765625	0.35737469482421874	0		-0.1033934326171875	5.92486181640625	0		
0.0012093069553375244	-0.010115708351135254	0		0.5352542724609375	-2.56470068359375	0		-0.9861959228515625	0.14892822265625	0		-0.6859781494140625	-2.509641845703125	0		2.367066650390625	-1.547125244140625	0		3.615500732421875	-0.6625136108398437	0		4.76650146484375	-0.20828639221191406	0		5.926431640625	0.35780352783203123	0		0.013699023246765137	5.93555224609375	0		
-0.008032895088195801	-2.62253999710083E-4	0		0.47303103637695315	-2.54695556640625	0		-1.0625767822265626	0.1509832763671875	0		-0.6925874633789062	-2.514808349609375	0		2.359740966796875	-1.5384080810546874	0		3.60007568359375	-0.6617106323242188	0		4.7939169921875	-0.21827445983886717	0		5.92604833984375	0.3582479248046875	0		-0.1188220443725586	5.91553564453125	0		
3.829210102558136E-4	-0.008725811958312988	0		0.5372852172851562	-2.55940771484375	0		-0.966046875	0.1480364227294922	0		-0.7232831420898438	-2.523569091796875	0		2.334221923828125	-1.5393779296875	0		3.605483154296875	-0.6692658081054688	0		4.800705078125	-0.2048976287841797	0		5.92949658203125	0.35063485717773435	0		0.015312562942504883	5.9339072265625	0		
0.011097734451293945	0.0017610549926757812	0		0.48894931030273436	-2.5459169921875	0		-1.028436767578125	0.15282716369628907	0		-0.67703125	-2.534677001953125	0		2.368963134765625	-1.5243946533203125	0		3.633823486328125	-0.6792216796875	0		4.80024072265625	-0.20439581298828124	0		5.93417333984375	0.358007080078125	0		-0.1180783462524414	5.92689599609375	0		
-0.00228423810005188	0.008651921272277832	0		0.532435302734375	-2.54203369140625	0		-0.9629298095703125	0.15238113403320314	0		-0.6956050415039062	-2.53367431640625	0		2.333479248046875	-1.5202027587890625	0		3.614749267578125	-0.6533553466796875	0		4.79974560546875	-0.20389674377441405	0		5.93369775390625	0.3584667053222656	0		-0.10143265533447265	5.92327099609375	0		
0.002966101884841919	-0.003799777984619141	0		0.5038328857421875	-2.54091259765625	0		-1.0394183349609376	0.15538796997070312	0		-0.6975772094726562	-2.55397998046875	0		2.357920166015625	-1.51906494140625	0		3.593859619140625	-0.6724727172851562	0		4.80125048828125	-0.20144000244140625	0		5.9239267578125	0.34408016967773436	0		-0.1159486083984375	5.9131708984375	0		
-0.0016456760168075562	-0.006096516132354736	0		0.5202946166992187	-2.53459326171875	0		-1.0340615234375	0.15094999694824218	0		-0.732457275390625	-2.566729248046875	0		2.326421630859375	-1.51196630859375	0		3.603224609375	-0.6751276245117187	0		4.78970361328125	-0.19976719665527343	0		5.92751708984375	0.3524544677734375	0		0.016060256958007814	5.93449951171875	0		
-0.03808309936523437	0.004144678115844727	0		0.4697998352050781	-2.523123291015625	0		-1.034656982421875	0.15159446716308594	0		-0.6904044189453125	-2.581843505859375	0		2.3418779296875	-1.5057049560546876	0		3.621478515625	-0.68195556640625	0		4.8049375	-0.2085784912109375	0		5.926927734375	0.352886962890625	0		-0.10156859588623048	5.92416015625	0		
0.004234525203704834	0.0019838119745254515	0		0.52705810546875	-2.52456201171875	0		-1.0312239990234375	0.15614523315429688	0		-0.7680746459960938	-2.5778837890625	0		2.307548095703125	-1.484590576171875	0		3.608117431640625	-0.6642463989257813	0		4.80355322265625	-0.19311416625976563	0		5.91828076171875	0.3524432373046875	0		-0.10105228424072266	5.92373681640625	0		
4.860990047454834E-4	-0.0013962279558181762	0		0.4998019104003906	-2.495541015625	0		-1.031898193359375	0.15674183654785157	0		-0.7030836181640625	-2.59245068359375	0		2.308896484375	-1.4801260986328124	0		3.623206298828125	-0.6760625610351563	0		4.8097451171875	-0.1998076934814453	0		5.9176123046875	0.3528392639160156	0		-0.10156010437011719	5.92430615234375	0		
-0.013118107795715333	0.005371657848358155	0		0.4990196533203125	-2.4950146484375	0		-1.0326053466796874	0.1573114013671875	0		-0.7099730834960938	-2.597783935546875	0		2.30944140625	-1.4626712646484374	0		3.62558056640625	-0.6696784057617188	0		4.8049228515625	-0.20533224487304688	0		5.91691064453125	0.353212158203125	0		0.016053476333618165	5.9327744140625	0		
-0.00501601791381836	-0.0032738099098205565	0		0.5002468566894531	-2.492552978515625	0		-1.0333392333984375	0.15785133361816406	0		-0.7080833740234375	-2.61430322265625	0		2.3069091796875	-1.4481912841796876	0		3.595845703125	-0.6677578125	0		4.80417919921875	-0.2049547882080078	0		5.9120419921875	0.34563031005859374	0		-0.11690403747558593	5.9126123046875	0		
